<svg width="392" height="64" viewBox="0 0 392 64" fill="none" xmlns="http://www.w3.org/2000/svg">
<path fill-rule="evenodd" clip-rule="evenodd" d="M27.3652 0C12.2518 0 0 12.2518 0 27.3652C0 42.4786 12.2518 54.7305 27.3652 54.7305H31.3416C30.8817 55.4214 30.3565 56.065 29.7697 56.6307C26.9787 59.3217 21.0009 61.4647 16.8731 62.9445C16.0526 63.2386 15.3051 63.5066 14.6704 63.7474C24.3821 62.9244 32.9374 61.0167 37.6905 58.7765C39.3645 57.9876 41.9276 56.5312 44.4996 54.7305H364.635C379.748 54.7305 392 42.4786 392 27.3652C392 12.2518 379.748 0 364.635 0H27.3652Z" fill="white"/>
</svg>
